HIERARCHY
ROOT Hips
{
	OFFSET 0.000000 0.000000 0.000000
	CHANNELS 6 Xposition Yposition Zposition Zrotation Yrotation Xrotation 
	JOINT LHipJoint
	{
		OFFSET 0.000000 0.000000 0.000000
		CHANNELS 3 Zrotation Yrotation Xrotation
		JOINT LeftUpLeg
		{
			OFFSET 1.363060 -1.794630 0.839290
			CHANNELS 3 Zrotation Yrotation Xrotation
			JOINT LeftLeg
			{
				OFFSET 2.448110 -6.726130 0.000000
				CHANNELS 3 Zrotation Yrotation Xrotation
				JOINT LeftFoot
				{
					OFFSET 2.562200 -7.039590 0.000000
					CHANNELS 3 Zrotation Yrotation Xrotation
					JOINT LeftToeBase
					{
						OFFSET 0.157640 -0.433110 2.322550
						CHANNELS 3 Zrotation Yrotation Xrotation
						End Site
						{
							OFFSET 0.000000 0.000000 0.000000
						}
					}
				}
			}
		}
	}
	JOINT RHipJoint
	{
		OFFSET 0.000000 0.000000 0.000000
		CHANNELS 3 Zrotation Yrotation Xrotation
		JOINT RightUpLeg
		{
			OFFSET -1.305520 -1.794630 0.839290
			CHANNELS 3 Zrotation Yrotation Xrotation
			JOINT RightLeg
			{
				OFFSET -2.542530 -6.985550 0.000000
				CHANNELS 3 Zrotation Yrotation Xrotation
				JOINT RightFoot
				{
					OFFSET -2.568260 -7.056230 0.000000
					CHANNELS 3 Zrotation Yrotation Xrotation
					JOINT RightToeBase
					{
						OFFSET -0.164730 -0.452590 2.363150
						CHANNELS 3 Zrotation Yrotation Xrotation
						End Site
						{
							OFFSET 0.000000 0.000000 0.000000
						}
					}
				}
			}
		}
	}
	JOINT LowerBack
	{
		OFFSET 0.000000 0.000000 0.000000
		CHANNELS 3 Zrotation Yrotation Xrotation
		JOINT Spine
		{
			OFFSET 0.028270 2.035590 -0.193380
			CHANNELS 3 Zrotation Yrotation Xrotation
			JOINT Spine1
			{
				OFFSET 0.056720 2.048850 -0.042750
				CHANNELS 3 Zrotation Yrotation Xrotation
				JOINT Neck
				{
					OFFSET 0.000000 0.000000 0.000000
					CHANNELS 3 Zrotation Yrotation Xrotation
					JOINT Neck1
					{
						OFFSET -0.054170 1.746240 0.172020
						CHANNELS 3 Zrotation Yrotation Xrotation
						JOINT Head
						{
							OFFSET 0.104070 1.761360 -0.123970
							CHANNELS 3 Zrotation Yrotation Xrotation
							End Site
							{
								OFFSET 0.000000 0.000000 0.000000
							}
						}
					}
				}
				JOINT LeftShoulder
				{
					OFFSET 0.000000 0.000000 0.000000
					CHANNELS 3 Zrotation Yrotation Xrotation
					JOINT LeftArm
					{
						OFFSET 3.362410 1.200890 -0.311210
						CHANNELS 3 Zrotation Yrotation Xrotation
						JOINT LeftForeArm
						{
							OFFSET 4.983000 -0.000000 -0.000000
							CHANNELS 3 Zrotation Yrotation Xrotation
							JOINT LeftHand
							{
								OFFSET 3.483560 -0.000000 -0.000000
								CHANNELS 3 Zrotation Yrotation Xrotation
								JOINT LeftFingerBase
								{
									OFFSET 0.000000 0.000000 0.000000
									CHANNELS 3 Zrotation Yrotation Xrotation
									JOINT LeftHandIndex1
									{
										OFFSET 0.715260 -0.000000 -0.000000
										CHANNELS 3 Zrotation Yrotation Xrotation
										End Site
										{
											OFFSET 0.000000 0.000000 0.000000
										}
									}
								}
								JOINT LThumb
								{
									OFFSET 0.000000 0.000000 0.000000
									CHANNELS 3 Zrotation Yrotation Xrotation
									End Site
									{
										OFFSET 0.000000 0.000000 0.000000
									}
								}
							}
						}
					}
				}
				JOINT RightShoulder
				{
					OFFSET 0.000000 0.000000 0.000000
					CHANNELS 3 Zrotation Yrotation Xrotation
					JOINT RightArm
					{
						OFFSET -3.136600 1.374050 -0.404650
						CHANNELS 3 Zrotation Yrotation Xrotation
						JOINT RightForeArm
						{
							OFFSET -5.241900 -0.000000 -0.000000
							CHANNELS 3 Zrotation Yrotation Xrotation
							JOINT RightHand
							{
								OFFSET -3.444170 -0.000000 -0.000000
								CHANNELS 3 Zrotation Yrotation Xrotation
								JOINT RightFingerBase
								{
									OFFSET 0.000000 0.000000 0.000000
									CHANNELS 3 Zrotation Yrotation Xrotation
									JOINT RightHandIndex1
									{
										OFFSET -0.622530 -0.000000 -0.000000
										CHANNELS 3 Zrotation Yrotation Xrotation
										End Site
										{
											OFFSET 0.000000 0.000000 0.000000
										}
									}
								}
								JOINT RThumb
								{
									OFFSET 0.000000 0.000000 0.000000
									CHANNELS 3 Zrotation Yrotation Xrotation
									End Site
									{
										OFFSET 0.000000 0.000000 0.000000
									}
								}
							}
						}
					}
				}
			}
		}
	}
}
MOTION
Frames: 4
Frame Time: 0.008333
-2.744522 17.017727 0.105401 34.801930 82.789178 44.923728 -9.620997 0.799262 2.566450 -12.564633 -0.244182 -30.141703 -3.012534 -0.135069 10.726936 -0.489197 -3.564567 7.163698 -0.457700 -0.000000 -30.480300 10.984128 -3.152700 -1.545568 4.984993 -9.328025 -9.461331 -0.016476 -3.291930 44.926910 -0.704153 -1.958691 4.688970 -0.400299 -0.000000 -73.317300 -5.432260 -1.440693 -1.946803 -2.018704 -1.202051 -3.389847 -7.627659 -1.336328 0.278736 12.379053 -3.527256 -5.568064 -4.652079 -0.376551 0.486226 0.000000 0.000000 0.000000 -4.882551 7.524465 1.877598 -67.842912 2.951363 5.243026 -3.642374 -13.343095 -0.003320 3.981110 3.840118 0.135925 -0.061399 -0.007828 -0.000000 0.000000 0.000000 0.000000 0.000000 0.000000 0.000000 22.633060 -0.437541 0.464360 71.103187 8.531112 0.984983 2.843397 24.191726 0.007240 -0.831175 7.191209 -0.056159 0.060309 -0.109852 -0.000000 0.000000 0.000000 0.000000 0.000000 0.000000 0.000000 
-2.603368 17.040222 0.117310 34.108572 82.331452 44.174511 -9.576720 0.869049 2.476849 -12.818789 0.060022 -29.489998 -3.051039 -0.156354 10.812915 -0.478183 -3.502858 6.548825 -0.413300 -0.000001 -30.193700 11.159488 -3.010901 -1.622806 4.728012 -9.657992 -11.097684 -0.289686 -3.431651 47.748460 -1.004977 -3.891184 5.558953 -0.821100 -0.000000 -71.343600 -5.686352 -1.510264 -1.799311 -2.066657 -1.251562 -3.369999 -7.632219 -1.387023 0.242230 12.438299 -3.545577 -5.559677 -4.646631 -0.375791 0.485313 0.000000 0.000000 0.000000 -4.717587 7.221053 1.903993 -67.701967 2.682759 5.954458 -3.651234 -13.892860 -0.003537 3.852123 3.850761 0.132040 -0.063293 -0.006484 -0.000000 0.000000 0.000000 0.000000 0.000000 0.000000 0.000000 22.688225 -0.526490 0.494097 71.393888 8.293820 0.934340 2.833293 23.823983 0.007024 -0.773211 7.031546 -0.051275 0.059048 -0.107909 -0.000000 0.000000 0.000000 0.000000 0.000000 0.000000 0.000000 
-2.465110 17.062628 0.127003 32.668452 81.794950 42.716498 -9.561457 0.934526 2.386332 -12.997576 0.436742 -28.863900 -3.080794 -0.181546 10.813976 -0.459503 -3.389872 5.958405 -0.362400 -0.000000 -29.900600 11.283884 -2.847885 -1.668334 4.618684 -9.781670 -12.776216 -0.532919 -3.549726 50.457126 -1.329111 -6.023319 5.975488 -1.319000 -0.000000 -68.760800 -5.865881 -1.559190 -1.681709 -2.099564 -1.286373 -3.356915 -7.638944 -1.423570 0.203395 12.476406 -3.543748 -5.550722 -4.643698 -0.375238 0.485131 0.000000 0.000000 0.000000 -4.617051 6.938597 1.928463 -67.513007 2.426495 6.711822 -3.654087 -14.538884 -0.003699 3.726250 3.844277 0.127656 -0.064971 -0.005367 -0.000000 0.000000 0.000000 0.000000 0.000000 0.000000 0.000000 22.728879 -0.581810 0.529529 71.645476 8.084688 0.997351 2.830134 23.469045 0.006896 -0.665184 6.867916 -0.043390 0.057756 -0.106030 -0.000000 0.000000 0.000000 0.000000 0.000000 0.000000 0.000000 
-2.329386 17.085070 0.135221 30.776141 81.176119 40.833048 -9.564098 0.997834 2.289410 -13.127973 0.888067 -28.240423 -3.104513 -0.211864 10.714753 -0.433178 -3.211506 5.425112 -0.304000 0.000000 -29.621700 11.373511 -2.671208 -1.684557 4.617364 -9.726751 -14.473996 -0.745378 -3.652458 53.015570 -1.662018 -8.235131 5.938595 -1.829600 -0.000001 -65.698900 -5.990013 -1.593325 -1.586465 -2.121599 -1.310647 -3.347552 -7.648865 -1.449746 0.168520 12.501891 -3.522080 -5.544944 -4.643992 -0.374874 0.484228 0.000000 0.000000 0.000000 -4.566710 6.711396 1.950520 -67.272605 2.138622 7.522399 -3.652491 -15.235230 -0.003806 3.618199 3.812901 0.122974 -0.066525 -0.004341 -0.000000 0.000000 0.000000 0.000000 0.000000 0.000000 0.000000 22.769160 -0.605638 0.565403 71.859109 7.901708 1.156773 2.832511 23.135619 0.006849 -0.504297 6.703278 -0.032703 0.056329 -0.104156 -0.000000 0.000000 0.000000 0.000000 0.000000 0.000000 0.000000 
